<svg version="1.1" id="Layer_1" xmlns="http://www.w3.org/2000/svg" xmlns:xlink="http://www.w3.org/1999/xlink" x="0px" y="0px"
	 width="100%" viewBox="0 0 284 62" enable-background="new 0 0 284 62" xml:space="preserve">
<path fill="#FFFFFF" opacity="1.000000" stroke="none" 
	d="
M130.000000,1.000000 
	C181.608200,1.000000 233.216415,1.000000 284.912292,1.000000 
	C284.912292,21.584492 284.912292,42.169479 284.912292,63.000000 
	C228.646011,63.000000 172.291656,63.000000 115.626358,62.658993 
	C122.198433,61.065567 127.360657,57.484852 130.429611,51.102177 
	C134.798050,42.016895 137.067764,32.470936 138.245300,22.408752 
	C139.298767,13.406736 138.562622,5.916007 130.000000,1.000000 
M250.559036,61.000000 
	C256.816467,61.332199 263.078247,61.598976 269.330048,62.015282 
	C275.389191,62.418762 276.560394,61.160137 275.320465,55.158112 
	C229.390778,55.158112 183.447342,55.158112 137.503906,55.158112 
	C140.266403,56.121857 143.106842,56.822742 145.973755,56.956619 
	C162.154694,57.712231 178.340683,58.365574 194.527466,58.988632 
	C212.877167,59.694931 231.229523,60.332531 250.559036,61.000000 
z"/>
<path fill="#FBAD26" opacity="1.000000" stroke="none" 
	d="
M43.000000,63.000000 
	C40.629444,63.000000 38.258884,63.000000 35.250454,62.636684 
	C32.511963,62.090141 30.411345,61.906914 28.522215,61.742134 
	C26.999294,55.581741 25.554565,49.737644 24.109837,43.893547 
	C23.519785,43.903465 22.929733,43.913383 22.339682,43.923298 
	C18.538305,49.635822 18.281210,56.321220 18.000000,63.000000 
	C12.440466,63.000000 6.880933,63.000000 1.000000,63.000000 
	C1.000000,60.335949 1.000000,57.659023 1.362512,54.355759 
	C2.068002,53.368927 2.637158,53.054375 2.721063,52.641266 
	C5.178106,40.543938 7.160002,28.328407 10.194237,16.379717 
	C11.584586,10.904581 8.824805,2.714992 18.000000,1.000000 
	C19.714357,1.000000 21.428717,1.000000 23.755728,1.357836 
	C25.795652,1.913454 27.222923,2.111235 29.100681,2.371442 
	C28.368958,7.289257 27.663286,12.031985 26.957615,16.774714 
	C27.406639,16.916685 27.855663,17.058657 28.304688,17.200628 
	C32.869793,11.800419 37.434895,6.400210 42.000000,1.000000 
	C43.714359,1.000000 45.428715,1.000000 47.768818,1.365248 
	C51.233273,1.933218 54.071980,2.135941 57.698147,2.394898 
	C51.709026,9.964465 46.280281,16.728256 40.981243,23.592182 
	C39.667187,25.294304 37.543663,27.600485 37.896156,29.150558 
	C39.549618,36.421600 41.937168,43.525715 44.062572,50.689438 
	C44.554489,50.720070 45.046410,50.750702 45.538330,50.781334 
	C52.932735,34.511883 60.327141,18.242428 67.421661,2.632788 
	C70.042366,1.982311 72.021187,1.491155 74.000000,1.000000 
	C75.714355,1.000000 77.428719,1.000000 79.774857,1.369400 
	C82.829544,1.917660 85.252449,2.096520 89.000000,2.373166 
	C89.000000,12.648420 88.922508,22.688223 89.050720,32.725395 
	C89.085793,35.471336 89.738083,38.209400 89.813583,41.192413 
	C89.717171,43.303341 89.914299,45.172932 90.064865,47.405430 
	C90.049324,48.498020 90.080330,49.227703 89.868118,50.106724 
	C89.787743,50.851776 89.950592,51.447491 90.067238,52.489399 
	C89.958534,55.630688 89.896034,58.325787 89.658829,61.112934 
	C89.266319,61.367756 89.111954,61.577271 88.653862,61.901108 
	C87.541908,62.013592 86.797127,62.058498 85.776161,61.794056 
	C81.982544,61.690941 78.465103,61.897171 74.529823,62.028145 
	C73.535660,58.752766 72.959335,55.552643 72.382889,52.352539 
	C62.277168,51.267170 62.277168,51.267170 58.505020,61.475220 
	C56.897938,62.019157 55.448967,62.509579 54.000000,63.000000 
	C51.958332,63.000000 49.916668,63.000000 47.300026,62.670967 
	C45.483364,62.561291 44.241684,62.780647 43.000000,63.000000 
M71.082214,26.766241 
	C69.756409,30.701509 68.430595,34.636780 67.073601,38.664619 
	C69.564644,38.664619 71.632820,38.664619 73.677597,38.664619 
	C74.151176,32.430286 74.597641,26.552753 75.044113,20.675222 
	C74.700630,20.606953 74.357140,20.538683 74.013657,20.470413 
	C73.156517,22.336851 72.299385,24.203289 71.082214,26.766241 
z"/>
<path fill="#FBAD26" opacity="1.000000" stroke="none" 
	d="
M90.111427,47.042526 
	C89.914299,45.172932 89.717171,43.303341 90.155975,41.053917 
	C91.867096,36.639534 92.973717,32.613052 94.011467,28.568897 
	C96.967300,17.049961 100.315056,5.812984 113.000000,1.000000 
	C118.354927,1.000000 123.709862,1.000000 129.532394,1.000000 
	C138.562622,5.916007 139.298767,13.406736 138.245300,22.408752 
	C137.067764,32.470936 134.798050,42.016895 130.429611,51.102177 
	C127.360657,57.484852 122.198433,61.065567 115.157700,62.658993 
	C109.977905,63.000000 104.955818,63.000000 99.454124,62.642105 
	C96.647606,59.202656 94.353149,56.095497 91.962059,53.064575 
	C91.560120,52.555088 90.740219,52.375320 90.113441,52.043209 
	C89.950592,51.447491 89.787743,50.851776 90.227364,50.109940 
	C91.197075,49.280678 91.564323,48.597534 91.931564,47.914387 
	C91.324852,47.623768 90.718140,47.333149 90.111427,47.042526 
M121.998962,15.853617 
	C121.257767,14.588635 120.516579,13.323655 119.775383,12.058676 
	C118.044838,13.334852 115.179344,14.322104 114.768913,15.934340 
	C112.207367,25.996552 110.043800,36.170650 108.159195,46.383488 
	C107.869003,47.956085 109.697762,49.919704 110.546562,51.702484 
	C112.247437,50.390064 115.072388,49.349354 115.466003,47.720947 
	C117.944588,37.466816 119.882980,27.082111 121.998962,15.853617 
z"/>
<path fill="#FFFFFF" opacity="1.000000" stroke="none" 
	d="
M73.531349,1.000000 
	C72.021187,1.491155 70.042366,1.982311 67.421661,2.632788 
	C60.327141,18.242428 52.932735,34.511883 45.538330,50.781334 
	C45.046410,50.750702 44.554489,50.720070 44.062572,50.689438 
	C41.937168,43.525715 39.549618,36.421600 37.896156,29.150558 
	C37.543663,27.600485 39.667187,25.294304 40.981243,23.592182 
	C46.280281,16.728256 51.709026,9.964465 57.698147,2.394898 
	C54.071980,2.135941 51.233273,1.933218 48.197281,1.365248 
	C56.354233,1.000000 64.708466,1.000000 73.531349,1.000000 
z"/>
<path fill="#FFFFFF" opacity="1.000000" stroke="none" 
	d="
M112.531342,1.000000 
	C100.315056,5.812984 96.967300,17.049961 94.011467,28.568897 
	C92.973717,32.613052 91.867096,36.639534 90.449524,40.812580 
	C89.738083,38.209400 89.085793,35.471336 89.050720,32.725395 
	C88.922508,22.688223 89.000000,12.648420 89.000000,2.373166 
	C85.252449,2.096520 82.829544,1.917660 80.203323,1.369400 
	C90.687561,1.000000 101.375122,1.000000 112.531342,1.000000 
z"/>
<path fill="#FFFFFF" opacity="1.000000" stroke="none" 
	d="
M17.529547,1.000000 
	C8.824805,2.714992 11.584586,10.904581 10.194237,16.379717 
	C7.160002,28.328407 5.178106,40.543938 2.721063,52.641266 
	C2.637158,53.054375 2.068002,53.368927 1.362512,53.864708 
	C1.000000,36.445408 1.000000,18.890818 1.000000,1.000000 
	C6.348338,1.000000 11.703716,1.000000 17.529547,1.000000 
z"/>
<path fill="#FFFFFF" opacity="1.000000" stroke="none" 
	d="
M54.468533,63.000000 
	C55.448967,62.509579 56.897938,62.019157 58.505020,61.475220 
	C62.277168,51.267170 62.277168,51.267170 72.382889,52.352539 
	C72.959335,55.552643 73.535660,58.752766 74.551224,62.251808 
	C74.990471,62.550724 75.000000,63.000000 75.000000,63.000000 
	C68.312355,63.000000 61.624710,63.000000 54.468533,63.000000 
z"/>
<path fill="#FFFFFF" opacity="1.000000" stroke="none" 
	d="
M18.467606,63.000000 
	C18.281210,56.321220 18.538305,49.635822 22.339682,43.923298 
	C22.929733,43.913383 23.519785,43.903465 24.109837,43.893547 
	C25.554565,49.737644 26.999294,55.581741 28.522215,61.742134 
	C30.411345,61.906914 32.511963,62.090141 34.806290,62.636684 
	C29.645071,63.000000 24.290140,63.000000 18.467606,63.000000 
z"/>
<path fill="#FFFFFF" opacity="1.000000" stroke="none" 
	d="
M41.532059,1.000000 
	C37.434895,6.400210 32.869793,11.800419 28.304688,17.200628 
	C27.855663,17.058657 27.406639,16.916685 26.957615,16.774714 
	C27.663286,12.031985 28.368958,7.289257 29.100681,2.371442 
	C27.222923,2.111235 25.795652,1.913454 24.184191,1.357836 
	C29.688040,1.000000 35.376080,1.000000 41.532059,1.000000 
z"/>
<path fill="#FFFFFF" opacity="1.000000" stroke="none" 
	d="
M90.067238,52.489399 
	C90.740219,52.375320 91.560120,52.555088 91.962059,53.064575 
	C94.353149,56.095497 96.647606,59.202656 98.987259,62.642105 
	C94.975456,63.000000 90.950912,63.000000 86.467972,62.775368 
	C86.009567,62.550735 86.052338,62.103405 86.052338,62.103401 
	C86.797127,62.058498 87.541908,62.013592 88.901665,61.918266 
	C89.879250,61.681686 89.984886,61.399368 89.833534,61.020885 
	C89.896034,58.325787 89.958534,55.630688 90.067238,52.489399 
z"/>
<path fill="#FBAD26" opacity="1.000000" stroke="none" 
	d="
M85.776161,61.794060 
	C86.052338,62.103405 86.009567,62.550735 86.004784,62.775368 
	C82.638710,63.000000 79.277428,63.000000 75.458069,63.000000 
	C75.000000,63.000000 74.990471,62.550724 74.969070,62.327065 
	C78.465103,61.897171 81.982544,61.690941 85.776161,61.794060 
z"/>
<path fill="#FFFFFF" opacity="1.000000" stroke="none" 
	d="
M43.400017,63.000000 
	C44.241684,62.780647 45.483364,62.561291 46.862526,62.670967 
	C45.933346,63.000000 44.866688,63.000000 43.400017,63.000000 
z"/>
<path fill="#EC2028" opacity="1.000000" stroke="none" 
	d="
M250.069885,61.000000 
	C231.229523,60.332531 212.877167,59.694931 194.527466,58.988632 
	C178.340683,58.365574 162.154694,57.712231 145.973755,56.956619 
	C143.106842,56.822742 140.266403,56.121857 137.503906,55.158112 
	C183.447342,55.158112 229.390778,55.158112 275.320465,55.158112 
	C276.560394,61.160137 275.389191,62.418762 269.330048,62.015282 
	C263.078247,61.598976 256.816467,61.332199 250.069885,61.000000 
z"/>
<path fill="#FFFFFF" opacity="1.000000" stroke="none" 
	d="
M71.262230,26.417984 
	C72.299385,24.203289 73.156517,22.336851 74.013657,20.470413 
	C74.357140,20.538683 74.700630,20.606953 75.044113,20.675222 
	C74.597641,26.552753 74.151176,32.430286 73.677597,38.664619 
	C71.632820,38.664619 69.564644,38.664619 67.073601,38.664619 
	C68.430595,34.636780 69.756409,30.701509 71.262230,26.417984 
z"/>
<path fill="#FFFFFF" opacity="1.000000" stroke="none" 
	d="
M90.064865,47.405430 
	C90.718140,47.333149 91.324852,47.623768 91.931564,47.914387 
	C91.564323,48.597534 91.197075,49.280678 90.470581,49.960609 
	C90.080330,49.227703 90.049324,48.498020 90.064865,47.405430 
z"/>
<path fill="#FBAD26" opacity="1.000000" stroke="none" 
	d="
M89.658829,61.112934 
	C89.984886,61.399368 89.879250,61.681686 89.268829,61.850689 
	C89.111954,61.577271 89.266319,61.367756 89.658829,61.112934 
z"/>
<path fill="#FFFFFF" opacity="1.000000" stroke="none" 
	d="
M121.999420,16.297085 
	C119.882980,27.082111 117.944588,37.466816 115.466003,47.720947 
	C115.072388,49.349354 112.247437,50.390064 110.546555,51.702484 
	C109.697762,49.919704 107.869003,47.956085 108.159195,46.383488 
	C110.043800,36.170650 112.207367,25.996552 114.768913,15.934340 
	C115.179344,14.322104 118.044838,13.334852 119.775383,12.058675 
	C120.516579,13.323655 121.257767,14.588635 121.999420,16.297085 
z"/>
</svg>